# xmcd
# Track frame offsets:
# 150
# 13970
# 29030
# 43772
# 58522
# 73635
# 88897
# 104810
# 120715
# 135635
# 145685
# 159025
# 171790
# 184042
# 198817
# 216627
# 232587
#
# Disc length: 3336 seconds
# Revision: 0
# Processed by: cddbd v1.4PL0 Copyright (c) Steve Scherf et al.
# Submitted via: VisiTrax 2.9.5.180 - For more info visit www.synapsa.com
#
DISCID=f40d0611
DTITLE=Billy D Hunter - Headed for the high countrys
DYEAR=1900
DGENRE=
TTITLE0=ou asked me to
TTITLE1=January, April and me
TTITLE2=Walk softly on the bridges
TTITLE3=What the cards held for me
TTITLE4=New patches
TTITLE5=Dealing with the devil
TTITLE6=Mr. Jesus
TTITLE7=It won't always rain
TTITLE8=Candle in the wind
TTITLE9=Old five and dimers
TTITLE10=Ain't you even gonna cry
TTITLE11=I've lived it up
TTITLE12=After the storm
TTITLE13=I'd rather live right
TTITLE14=The tumbleweed kid
TTITLE15=Jamey
TTITLE16=A prayer for my friens
EXTD=
EXTT0=
EXTT1=
EXTT2=
EXTT3=
EXTT4=
EXTT5=
EXTT6=
EXTT7=
EXTT8=
EXTT9=
EXTT10=
EXTT11=
EXTT12=
EXTT13=
EXTT14=
EXTT15=
EXTT16=
PLAYORDER=
